<svg width="22" height="22" viewBox="0 0 29 29" fill="none" xmlns="http://www.w3.org/2000/svg">
<path d="M12.8194 4.14653C13.2444 2.84178 15.0903 2.84178 15.5139 4.14653L17.0297 8.8102C17.1223 9.09422 17.3024 9.3417 17.5441 9.51726C17.7858 9.69282 18.0768 9.78748 18.3755 9.7877H23.28C24.6528 9.7877 25.2223 11.5444 24.113 12.3519L20.1464 15.2334C19.9042 15.4091 19.7238 15.657 19.6312 15.9415C19.5385 16.226 19.5384 16.5326 19.6307 16.8172L21.1465 21.4809C21.5715 22.7856 20.077 23.8722 18.9649 23.0647L14.9982 20.1832C14.7563 20.0075 14.4649 19.9129 14.1659 19.9129C13.8669 19.9129 13.5756 20.0075 13.3336 20.1832L9.36696 23.0647C8.2563 23.8722 6.76313 22.7856 7.18671 21.4809L8.70255 16.8172C8.79488 16.5326 8.79471 16.226 8.70207 15.9415C8.60944 15.657 8.42909 15.4091 8.18688 15.2334L4.22163 12.3533C3.11238 11.5458 3.6833 9.78911 5.05463 9.78911H9.95771C10.2567 9.78919 10.548 9.69468 10.79 9.5191C11.032 9.34351 11.2123 9.09587 11.305 8.81161L12.8208 4.14795L12.8194 4.14653Z" fill="currentColor"/>
</svg>
